HIERARCHY
ROOT Hips
{
	OFFSET 0.00000 0.00000 0.00000
	CHANNELS 6 Xposition Yposition Zposition Zrotation Yrotation Xrotation
	JOINT LHipJoint
	{
		OFFSET 0 0 0
		CHANNELS 3 Zrotation Yrotation Xrotation
		JOINT LeftUpLeg
		{
			OFFSET 1.37733 -1.58235 0.71371
			CHANNELS 3 Zrotation Yrotation Xrotation
			JOINT LeftLeg
			{
				OFFSET 2.33951 -6.42775 0.00000
				CHANNELS 3 Zrotation Yrotation Xrotation
				JOINT LeftFoot
				{
					OFFSET 2.30523 -6.33358 0.00000
					CHANNELS 3 Zrotation Yrotation Xrotation
					JOINT LeftToeBase
					{
						OFFSET 0.05388 -0.14857 1.53863
						CHANNELS 3 Zrotation Yrotation Xrotation
						End Site
						{
							OFFSET 0.00000 -0.00000 0.79208
						}
					}
				}
			}
		}
	}
	JOINT RHipJoint
	{
		OFFSET 0 0 0
		CHANNELS 3 Zrotation Yrotation Xrotation
		JOINT RightUpLeg
		{
			OFFSET -1.47839 -1.58235 0.71371
			CHANNELS 3 Zrotation Yrotation Xrotation
			JOINT RightLeg
			{
				OFFSET -2.26534 -6.22397 0.00000
				CHANNELS 3 Zrotation Yrotation Xrotation
				JOINT RightFoot
				{
					OFFSET -2.27037 -6.23779 0.00000
					CHANNELS 3 Zrotation Yrotation Xrotation
					JOINT RightToeBase
					{
						OFFSET -0.09543 -0.26220 1.62615
						CHANNELS 3 Zrotation Yrotation Xrotation
						End Site
						{
							OFFSET -0.00000 -0.00000 0.83991
						}
					}
				}
			}
		}
	}
	JOINT LowerBack
	{
		OFFSET 0 0 0
		CHANNELS 3 Zrotation Yrotation Xrotation
		JOINT Spine
		{
			OFFSET 0.00101 1.81877 -0.00412
			CHANNELS 3 Zrotation Yrotation Xrotation
			JOINT Spine1
			{
				OFFSET 0.00322 1.81934 -0.03962
				CHANNELS 3 Zrotation Yrotation Xrotation
				JOINT Neck
				{
					OFFSET 0 0 0
					CHANNELS 3 Zrotation Yrotation Xrotation
					JOINT Neck1
					{
						OFFSET -0.13795 1.66192 0.22650
						CHANNELS 3 Zrotation Yrotation Xrotation
						JOINT Head
						{
							OFFSET 0.14844 1.65995 -0.39123
							CHANNELS 3 Zrotation Yrotation Xrotation
							End Site
							{
								OFFSET 0.04109 1.72502 -0.16783
							}
						}
					}
				}
				JOINT LeftShoulder
				{
					OFFSET 0 0 0
					CHANNELS 3 Zrotation Yrotation Xrotation
					JOINT LeftArm
					{
						OFFSET 3.25446 1.41983 0.32106
						CHANNELS 3 Zrotation Yrotation Xrotation
						JOINT LeftForeArm
						{
							OFFSET 4.05444 -0.00000 -0.00000
							CHANNELS 3 Zrotation Yrotation Xrotation
							JOINT LeftHand
							{
								OFFSET 3.21205 -0.00000 0.00000
								CHANNELS 3 Zrotation Yrotation Xrotation
								JOINT LeftFingerBase
								{
									OFFSET 0 0 0
									CHANNELS 3 Zrotation Yrotation Xrotation
									JOINT LeftHandIndex1
									{
										OFFSET 0.70741 -0.00000 0.00000
										CHANNELS 3 Zrotation Yrotation Xrotation
										End Site
										{
											OFFSET 0.57033 -0.00000 0.00000
										}
									}
								}
								JOINT LThumb
								{
									OFFSET 0 0 0
									CHANNELS 3 Zrotation Yrotation Xrotation
									End Site
									{
										OFFSET 0.57904 -0.00000 0.57904
									}
								}
							}
						}
					}
				}
				JOINT RightShoulder
				{
					OFFSET 0 0 0
					CHANNELS 3 Zrotation Yrotation Xrotation
					JOINT RightArm
					{
						OFFSET -3.30007 1.25485 0.33947
						CHANNELS 3 Zrotation Yrotation Xrotation
						JOINT RightForeArm
						{
							OFFSET -3.74048 -0.00000 -0.00000
							CHANNELS 3 Zrotation Yrotation Xrotation
							JOINT RightHand
							{
								OFFSET -3.16030 -0.00000 0.00000
								CHANNELS 3 Zrotation Yrotation Xrotation
								JOINT RightFingerBase
								{
									OFFSET 0 0 0
									CHANNELS 3 Zrotation Yrotation Xrotation
									JOINT RightHandIndex1
									{
										OFFSET -0.71703 -0.00000 0.00000
										CHANNELS 3 Zrotation Yrotation Xrotation
										End Site
										{
											OFFSET -0.57809 -0.00000 0.00000
										}
									}
								}
								JOINT RThumb
								{
									OFFSET 0 0 0
									CHANNELS 3 Zrotation Yrotation Xrotation
									End Site
									{
										OFFSET -0.58691 -0.00000 0.58691
									}
								}
							}
						}
					}
				}
			}
		}
	}
}
MOTION
Frames: 11
Frame Time: .0083333
20.3302 19.0957 0.4795 225.3570 93.7962 175.2130 0.0000 0.0000 0.0000 -10.7203 8.6201 -4.9811 14.0938 19.1423 72.4909 1.7449 -6.0445 27.7425 3.5802 -11.5798 -34.2611 0.0000 0.0000 0.0000 5.6768 -10.4611 -4.5463 -11.3040 -18.0806 63.7648 1.8527 -26.5159 -24.0996 -0.4766 -4.4273 12.2820 0.0228 1.2258 4.1483 -1.2012 1.6533 1.4154 -1.3231 0.8422 -0.8359 -5.7383 -2.7973 -10.1452 6.4278 -4.0059 24.4638 2.7943 -1.5006 9.6286 0.0000 -0.0000 0.0000 7.5243 2.7700 -43.4608 40.5573 -48.3966 -18.8549 -0.0000 0.0000 -80.0713 28.4347 -2.0738 -1.1225 -7.1250 0.0000 -0.0000 1.4254 27.6216 -0.6022 0.0000 -0.0000 0.0000 -8.6332 5.7746 -51.6064 -38.2367 46.9898 -17.1384 0.0000 -0.0000 -21.6789 -44.4469 -17.7805 16.6746 7.1250 -0.0000 -0.0000 -17.5040 -53.3119 3.6670
19.8284 19.3514 0.3947 230.1880 94.7218 176.0680 0.0000 0.0000 0.0000 -10.9514 6.2683 -10.7044 17.5921 19.8604 82.9441 -3.2984 -30.9591 20.3592 3.5894 -11.5930 -34.3071 0.0000 0.0000 0.0000 5.3619 -7.2340 -11.4735 -14.5340 -19.2681 73.8289 2.8663 -28.8244 -17.3583 -0.1761 -2.7028 7.4524 0.4365 1.4672 6.7316 -1.3681 2.0399 2.6597 -1.8027 1.0628 -0.9655 -6.2780 -3.1850 -10.9373 7.5573 -4.7375 25.8027 3.2302 -1.7158 10.3595 0.0000 -0.0000 0.0000 -4.9604 8.7890 -38.0780 40.4386 -48.3276 -18.7662 -0.0000 0.0000 -78.4956 27.6734 -6.8014 -3.5538 -7.1250 0.0000 -0.0000 0.6622 22.3099 -0.3613 0.0000 -0.0000 0.0000 4.3923 2.2510 -51.0328 -41.0235 48.6647 -19.2043 0.0000 -0.0000 -25.5804 -44.5720 -21.5856 19.9223 7.1250 -0.0000 -0.0000 -18.4273 -58.0643 6.0243
19.2985 19.5176 0.3197 233.7700 95.0861 175.5750 0.0000 0.0000 0.0000 -10.5132 3.1105 -17.4590 19.6621 19.9973 89.0120 -10.2725 -51.4612 -0.1010 2.4499 -9.7462 -28.1588 0.0000 0.0000 0.0000 4.8905 -4.6532 -18.8814 -17.1280 -19.8011 81.5761 2.7553 -32.4356 5.7143 -0.1294 -2.3184 6.3864 0.9076 1.3924 9.4580 -1.6115 2.0568 4.1010 -2.3820 1.1209 -0.9541 -5.2448 -3.4266 -12.0920 6.1543 -4.9499 27.0055 2.5295 -1.8358 10.9884 0.0000 -0.0000 0.0000 -16.5242 11.4853 -29.7625 38.5048 -47.1586 -17.3348 -0.0000 0.0000 -75.9201 30.0168 -1.4522 -0.8388 -7.1250 0.0000 -0.0000 2.6685 28.2993 -1.0856 0.0000 -0.0000 0.0000 16.6067 1.9581 -50.1470 -40.6705 48.4622 -18.9396 0.0000 -0.0000 -25.2420 -42.2321 -17.6991 15.4283 7.1250 -0.0000 -0.0000 -14.9618 -52.6754 2.8779
18.7749 19.5988 0.2733 231.8690 94.9736 169.3300 0.0000 0.0000 0.0000 -8.8479 -0.7846 -25.0001 19.8346 19.9993 89.5163 -0.3116 -64.9474 -47.3655 5.3330 -13.7493 -42.2423 0.0000 0.0000 0.0000 4.9764 -2.0982 -26.4621 -18.9150 -19.9717 86.8262 -1.9517 -33.8465 32.6926 -0.0282 -1.0831 2.9775 1.4956 1.1054 12.3013 -1.5288 1.8636 5.7201 -2.6682 1.0977 -0.8090 -4.2613 -3.2937 -13.7434 4.5040 -4.5257 27.0579 1.7918 -1.7427 11.2419 0.0000 -0.0000 0.0000 -26.6125 10.1348 -19.8078 36.1799 -45.6365 -15.6510 -0.0000 0.0000 -75.7035 33.7598 -4.0226 -2.6847 -7.1250 0.0000 -0.0000 5.3509 25.1432 -2.5811 0.0000 -0.0000 0.0000 26.6143 4.0173 -48.0259 -39.7676 47.9316 -18.2666 0.0000 -0.0000 -24.2628 -40.4021 -15.2069 12.5852 7.1250 -0.0000 -0.0000 -12.7082 -49.1989 1.3354
18.2930 19.5870 0.2357 231.2840 94.6860 164.2140 0.0000 0.0000 0.0000 -6.7191 -4.5016 -33.1489 18.6400 19.9556 86.0209 25.4211 -57.5366 -102.5971 5.5892 -14.0181 -43.3098 0.0000 0.0000 0.0000 4.4322 0.6135 -34.2786 -19.5123 -19.9943 88.5738 -10.3972 -29.1495 61.4231 -0.0677 -1.6792 4.6200 2.0050 0.8735 15.2317 -1.3619 1.7966 7.2684 -2.8365 1.1567 -0.7388 -3.7512 -3.1641 -14.3040 3.2571 -4.1278 24.6737 1.2728 -1.7300 10.4021 -0.0000 0.0000 0.0000 -34.4582 4.8256 -11.9567 30.4937 -41.3128 -11.7342 -0.0000 0.0000 -72.9174 34.0324 -9.0663 -6.0744 -7.1250 0.0000 -0.0000 5.0426 19.1032 -3.1267 -0.0000 0.0000 0.0000 34.3755 7.0682 -43.0858 -39.5466 47.7989 -18.1026 0.0000 -0.0000 -28.0156 -40.6354 -15.3694 12.8140 7.1250 -0.0000 -0.0000 -12.9668 -49.4465 1.4434
17.8857 19.4794 0.1839 252.4350 94.2245 180.9340 0.0000 0.0000 0.0000 -6.0255 -7.4944 -41.8230 17.5683 19.8576 82.8740 33.2352 -36.7082 -128.8666 5.5694 -13.9976 -43.2280 0.0000 0.0000 0.0000 1.3828 3.3986 -43.3356 -19.4831 -19.9936 88.4886 -19.3084 -23.3251 87.9810 -0.1448 -2.4525 6.7578 1.0332 0.7766 18.0206 -1.5538 1.6974 8.4970 -2.5368 1.1694 -0.9166 -5.6254 -3.4163 -15.0437 4.8618 -4.3848 22.1307 2.0871 -1.8776 9.7271 0.0000 -0.0000 0.0000 -40.4541 -2.5700 -8.5805 24.9056 -36.1074 -8.2342 -0.0000 0.0000 -65.4757 31.0266 -4.0291 -2.4200 -7.1250 0.0000 -0.0000 3.3040 25.2792 -1.5792 0.0000 -0.0000 0.0000 39.3729 11.3706 -38.6639 -36.8082 46.0610 -16.1018 0.0000 -0.0000 -30.5341 -36.6499 -8.3068 6.1352 7.1250 -0.0000 -0.0000 -8.6039 -40.1487 -1.0378
17.5810 19.2843 0.1220 307.0340 96.5974 230.0390 0.0000 0.0000 0.0000 -9.9232 -10.6384 -49.5289 16.7660 19.7474 80.5062 37.1794 -13.2185 -149.6162 5.2752 -13.6872 -41.9985 0.0000 0.0000 0.0000 -5.8346 4.9387 -52.5592 -18.6044 -19.9532 85.9166 -27.6901 -23.6926 112.9351 -0.0082 0.5849 -1.6073 -3.7821 1.1088 21.5549 -2.6698 1.4187 9.8586 -1.0220 1.0308 -1.2978 -6.9397 -3.6554 -16.4712 5.6294 -4.4278 18.6561 2.5143 -1.9496 8.8376 -0.0000 -0.0000 0.0000 -45.1362 -10.5256 -6.2076 21.9124 -32.8779 -6.5382 -0.0000 0.0000 -57.1933 28.8119 -3.5062 -1.9265 -7.1250 0.0000 -0.0000 1.6619 25.9800 -0.7663 -0.0000 -0.0000 0.0000 42.0699 17.1881 -34.3585 -34.2807 44.2916 -14.3087 0.0000 -0.0000 -30.5377 -32.9226 -8.9955 5.7809 7.1250 -0.0000 -0.0000 -5.3076 -40.6033 -0.5773
17.5303 19.0077 0.1141 296.2100 95.9836 210.5880 0.0000 0.0000 0.0000 -6.2718 -9.6051 -55.9338 16.0759 19.6267 78.4578 39.6583 9.6727 -161.5353 7.5888 -15.8083 -51.0676 0.0000 0.0000 0.0000 -3.5842 7.9429 -59.0443 -16.9440 -19.7746 81.0324 -34.5106 -9.1767 136.9021 -0.0103 -0.6558 1.8021 -2.7178 1.1565 27.1836 -2.1602 1.8918 11.9813 -1.3354 1.4814 -1.6544 -7.6951 -3.7103 -17.3678 6.5900 -4.2572 13.4169 2.9338 -1.8308 7.2740 0.0000 -0.0000 0.0000 -48.6922 -18.6730 -2.9168 20.8076 -31.6031 -5.9488 -0.0000 0.0000 -54.8731 28.1500 -4.6381 -2.4775 -7.1250 0.0000 -0.0000 1.1162 24.7228 -0.5471 0.0000 -0.0000 0.0000 43.9578 23.2885 -29.8839 -30.9427 41.6878 -12.0317 0.0000 -0.0000 -28.2043 -30.0002 -2.0493 1.1828 7.1250 -0.0000 -0.0000 -2.7590 -32.3384 -0.8561
17.5675 18.8980 0.0993 303.9580 95.2390 210.7760 0.0000 0.0000 0.0000 -5.1579 -10.2193 -62.6280 15.6311 19.5361 77.1306 40.5852 14.6753 -168.1551 6.8112 -15.1708 -48.1567 0.0000 0.0000 0.0000 -4.0618 8.5893 -65.6254 -15.6872 -19.5481 77.2984 -39.1065 7.2172 158.1242 -0.0597 -1.5760 4.3353 -2.2855 0.7761 29.2040 -2.1570 1.7903 13.9680 -1.5665 1.6186 -0.3098 -8.7173 -3.8899 -17.6997 8.0173 -4.1433 7.9440 3.5522 -1.6787 5.6212 -0.0000 0.0000 0.0000 -51.8459 -28.3567 -0.7097 18.9158 -29.3140 -4.9896 -0.0000 0.0000 -49.5804 25.9070 -4.5799 -2.2211 -7.1250 0.0000 -0.0000 -0.5623 24.8912 0.2734 -0.0000 0.0000 0.0000 46.0064 29.0887 -24.7191 -28.1137 39.2207 -10.1955 0.0000 -0.0000 -25.6303 -27.8058 0.5528 -0.2915 7.1250 -0.0000 -0.0000 -0.9711 -29.3537 -0.3704
17.6394 18.8098 0.0906 303.4570 95.9126 203.3510 0.0000 0.0000 0.0000 -4.0479 -8.9514 -70.0753 14.8793 19.3593 74.8728 40.8601 16.1894 -175.0165 5.6031 -14.0324 -43.3672 0.0000 0.0000 0.0000 -3.8987 10.9728 -73.1914 -14.5736 -19.2789 73.9488 -39.1799 6.4140 159.3957 -0.0131 -0.7397 2.0327 -2.3214 1.1453 30.6150 -2.1146 2.4647 15.1906 -1.7056 2.0966 0.4965 -8.1585 -5.3505 -23.1307 6.5983 -5.4954 7.2662 2.7973 -2.2778 6.3032 0.0000 -0.0000 0.0000 -55.8705 -36.9100 3.6176 18.0646 -28.2398 -4.5798 -0.0000 0.0000 -45.4963 24.8010 -6.0751 -2.7997 -7.1250 0.0000 -0.0000 -1.4220 23.2935 0.7440 0.0000 -0.0000 0.0000 48.7127 35.0999 -19.1659 -25.1525 36.3595 -8.3802 0.0000 -0.0000 -22.6246 -24.3780 2.8696 -1.2996 7.1250 -0.0000 -0.0000 1.6986 -26.8289 0.7495
17.7603 18.7709 0.0554 257.0960 93.7964 149.0910 0.0000 0.0000 0.0000 0.8074 -10.1407 -77.0412 13.1921 18.8504 69.7211 40.6910 17.6494 175.7757 2.9768 -10.6574 -31.1328 0.0000 0.0000 0.0000 0.6107 11.0830 -78.2185 -13.6497 -19.0043 71.1317 -38.9654 2.7237 159.6238 -0.1271 2.2985 -6.3315 2.9547 -0.6646 33.2067 -1.2132 1.7872 15.6165 -3.3371 2.1272 0.1791 -12.6000 -6.3464 -22.3270 12.9391 -5.8267 1.4620 5.5729 -1.9962 4.7603 -0.0000 0.0000 0.0000 -61.6390 -44.0053 10.0376 16.5202 -26.2209 -3.8729 -0.0000 0.0000 -43.4975 23.9926 -10.1646 -4.4911 -7.1250 0.0000 -0.0000 -2.1447 18.8807 1.3362 -0.0000 0.0000 0.0000 54.0263 40.1932 -12.2519 -22.0343 33.0158 -6.6045 0.0000 -0.0000 -18.5757 -19.4189 7.5030 -2.6356 7.1250 -0.0000 -0.0000 5.3859 -22.0422 2.9838
